<?xml version="1.0" encoding="UTF-8" standalone="no"?>
<!-- Created with Inkscape (http://www.inkscape.org/) -->

<svg
   xmlns:dc="http://purl.org/dc/elements/1.1/"
   xmlns:cc="http://creativecommons.org/ns#"
   xmlns:rdf="http://www.w3.org/1999/02/22-rdf-syntax-ns#"
   xmlns:svg="http://www.w3.org/2000/svg"
   xmlns="http://www.w3.org/2000/svg"
   xmlns:sodipodi="http://sodipodi.sourceforge.net/DTD/sodipodi-0.dtd"
   xmlns:inkscape="http://www.inkscape.org/namespaces/inkscape"
   width="38.175598mm"
   height="37.986607mm"
   viewBox="0 0 38.175598 37.986606"
   version="1.1"
   id="svg4238"
   inkscape:version="0.92.1 r15371"
   sodipodi:docname="logo.svg"
   inkscape:export-filename="C:\Users\dr_pd\Documents\Research\Notlef\logo.png"
   inkscape:export-xdpi="299.67542"
   inkscape:export-ydpi="299.67542">
  <defs
     id="defs4232" />
  <sodipodi:namedview
     id="base"
     pagecolor="#ffffff"
     bordercolor="#666666"
     borderopacity="1.0"
     inkscape:pageopacity="0.0"
     inkscape:pageshadow="2"
     inkscape:zoom="2.8"
     inkscape:cx="60.11822"
     inkscape:cy="55.441176"
     inkscape:document-units="mm"
     inkscape:current-layer="layer1"
     showgrid="false"
     fit-margin-top="0"
     fit-margin-left="0"
     fit-margin-right="0"
     fit-margin-bottom="0"
     inkscape:window-width="1366"
     inkscape:window-height="705"
     inkscape:window-x="-8"
     inkscape:window-y="-8"
     inkscape:window-maximized="1" />
  <metadata
     id="metadata4235">
    <rdf:RDF>
      <cc:Work
         rdf:about="">
        <dc:format>image/svg+xml</dc:format>
        <dc:type
           rdf:resource="http://purl.org/dc/dcmitype/StillImage" />
        <dc:title></dc:title>
      </cc:Work>
    </rdf:RDF>
  </metadata>
  <g
     inkscape:label="Layer 1"
     inkscape:groupmode="layer"
     id="layer1"
     transform="translate(-86.79467,-129.88539)">
    <rect
       style="fill:#dd5a83;fill-opacity:1;stroke-width:0.26458332"
       id="rect4271"
       width="38.175598"
       height="37.986607"
       x="86.79467"
       y="129.88539"
       inkscape:export-xdpi="192.28514"
       inkscape:export-ydpi="192.28514" />
    <g
       id="g3698"
       transform="matrix(0.26458333,0,0,0.26458333,69.153265,109.77204)"
       inkscape:export-xdpi="192.28514"
       inkscape:export-ydpi="192.28514">
      <path
         class="st1"
         d="m 183.5,220.1 c -29.2,0 -29.2,-99.2 -58.4,-99.2 -29.2,0 -29.2,99.2 -58.4,99.2"
         id="path3694"
         inkscape:connector-curvature="0"
         style="fill:#ffde17" />
      <path
         class="st2"
         d="m 183.5,219.93333 c -15.7,0 -23,-22.93333 -30.6,-49.03333 -7,-23.9 -14.3,-48.5 -27.8,-48.5 -13.5,0 -20.7,24.7 -27.8,48.5 -7.7,26.1 -14.9,49.2 -30.6,49.2 l 0.208333,-3.58333 C 80.408333,216.51667 87.4,193.9 94.5,170.1 c 7.7,-26.1 14.9,-50.7 30.6,-50.7 15.7,0 23,24.6 30.6,50.7 7,23.9 14.3,46.83333 27.8,46.83333 z"
         id="path3696"
         inkscape:connector-curvature="0"
         style="fill:#414042"
         sodipodi:nodetypes="ccsccccsccc" />
    </g>
    <g
       id="g3704"
       transform="matrix(0.26458333,0,0,0.26458333,76.374184,106.43166)"
       inkscape:export-xdpi="192.28514"
       inkscape:export-ydpi="192.28514">
      <path
         class="st3"
         d="m 183.5,232.8 c -29.2,0 -29.2,-43.5 -58.4,-43.5 -29.2,0 -29.2,43.5 -58.4,43.5"
         id="path3700"
         inkscape:connector-curvature="0"
         style="fill:#27aae1" />
      <path
         class="st2"
         d="m 183.5,232.63333 c -15.4,0 -23,-9.73333 -30.4,-20.73333 -7.3,-10.8 -14.2,-21.1 -27.9,-21.1 -13.8,0 -20.7,10.2 -27.9,21.1 -7.4,11 -15,20.73333 -30.4,20.73333 v -3 c 13.8,0 20.7,-8.53333 27.9,-19.43333 7.4,-11 15,-22.4 30.4,-22.4 15.4,0 23,11.4 30.4,22.4 7.3,10.8 14.2,19.43333 27.9,19.43333 z"
         id="path3702"
         inkscape:connector-curvature="0"
         style="fill:#414042"
         sodipodi:nodetypes="ccsccccsccc" />
    </g>
    <text
       xml:space="preserve"
       style="font-style:normal;font-variant:normal;font-weight:bold;font-stretch:normal;font-size:10.58333302px;line-height:1.25;font-family:Arial;-inkscape-font-specification:'Arial Bold';letter-spacing:0px;word-spacing:0px;fill:#ffffff;fill-opacity:1;stroke:none;stroke-width:0.26458332"
       x="90.66893"
       y="139.22139"
       id="text4269"
       inkscape:export-xdpi="192.28514"
       inkscape:export-ydpi="192.28514"><tspan
         sodipodi:role="line"
         id="tspan4267"
         x="90.66893"
         y="139.22139"
         style="font-style:normal;font-variant:normal;font-weight:bold;font-stretch:normal;font-family:Arial;-inkscape-font-specification:'Arial Bold';fill:#ffffff;fill-opacity:1;stroke-width:0.26458332">Notlef</tspan></text>
  </g>
</svg>
